<svg width="256" height="256" xmlns="http://www.w3.org/2000/svg" preserveAspectRatio="xMidYMid"><path d="M119.62.07c-.55.05-2.3.22-3.88.35-36.36 3.28-70.42 22.9-92 53.04a126.69 126.69 0 0 0-22.59 55.92C.13 116.42 0 118.5 0 128.03c0 9.53.13 11.6 1.15 18.64 6.96 48.06 41.17 88.44 87.56 103.4 8.31 2.68 17.07 4.51 27.03 5.61 3.88.43 20.64.43 24.52 0 17.2-1.9 31.76-6.15 46.12-13.49 2.2-1.12 2.63-1.42 2.33-1.67-.2-.15-9.59-12.74-20.85-27.95l-20.47-27.65-25.65-37.95a3646.04 3646.04 0 0 0-25.82-37.94c-.1-.02-.2 16.84-.25 37.44-.08 36.05-.1 37.5-.55 38.35a4.55 4.55 0 0 1-2.2 2.28c-.8.4-1.5.47-5.28.47H83.3l-1.15-.72a4.68 4.68 0 0 1-1.68-1.83l-.53-1.12.05-50.17.08-50.2.77-.97c.4-.52 1.26-1.2 1.86-1.52 1.02-.5 1.42-.55 5.75-.55 5.1 0 5.96.2 7.28 1.65.38.4 14.27 21.31 30.88 46.51 16.62 25.2 39.34 59.6 50.5 76.49l20.27 30.7 1.03-.68a131.4 131.4 0 0 0 26.3-23.07 127.4 127.4 0 0 0 30.13-65.42c1.02-7.04 1.15-9.11 1.15-18.64 0-9.54-.13-11.61-1.15-18.65-6.96-48.06-41.17-88.44-87.56-103.4A134.4 134.4 0 0 0 140.64.38c-2.4-.25-18.95-.52-21.02-.32Zm52.4 77.41c1.2.6 2.18 1.75 2.53 2.96.2.65.25 14.56.2 45.9l-.08 45-7.93-12.16-7.96-12.16v-32.7c0-21.15.1-33.03.25-33.6a5.1 5.1 0 0 1 2.48-3.16c1.02-.53 1.4-.58 5.33-.58 3.7 0 4.35.05 5.18.5Z"/></svg>