<svg viewBox="0 0 512 512" xmlns="http://www.w3.org/2000/svg"><path d="M512 256c0 84.34-40.8 159.16-103.72 205.8A254.92 254.92 0 0 1 256 512a254.76 254.76 0 0 1-152.3-50.2C40.79 415.14 0 340.32 0 256 0 114.62 114.61 0 256 0s256 114.61 256 256z"/><path d="M408.55 400.14a319.16 319.16 0 0 0-4.76-24.83 395.27 395.27 0 0 0-6.04-22.76 496.5 496.5 0 0 0-23.56-62.57 607.75 607.75 0 0 0-41.67-76.61 574.15 574.15 0 0 0-17.43-25.74 494.1 494.1 0 0 0-42.4-51.7 377.5 377.5 0 0 0-16.69-16.6 311.15 311.15 0 0 0-19.14-16.54c-41.68-33.1-79-43.03-105.09-27.97-26.09 15.06-36.14 52.34-28.32 105 1.19 8.05 2.79 16.35 4.76 24.83a370.55 370.55 0 0 0 6.03 22.76 494.28 494.28 0 0 0 23.57 62.57 575.6 575.6 0 0 0 13.58 27.96 621.24 621.24 0 0 0 28.08 48.65 584.75 584.75 0 0 0 17.43 25.75 493.84 493.84 0 0 0 42.4 51.69 378.5 378.5 0 0 0 16.7 16.6 314.07 314.07 0 0 0 19.13 16.54c15.33 12.18 30.07 21.21 43.87 27.01a254.91 254.91 0 0 0 89.28-42.38c3.68-16.94 3.82-37.7.27-61.66zM385.08 458c-3.04 13.14-8.63 22.15-16.63 26.76-7.98 4.62-18.58 4.95-31.48 1.02-13.98-4.27-30.3-13.61-47.2-27.04a296.38 296.38 0 0 1-17.08-14.7 360.51 360.51 0 0 1-16.7-16.58 447.32 447.32 0 0 1-28.09-32.9 529.69 529.69 0 0 1-18.03-24.69 581.4 581.4 0 0 1-24.62-39.05 580.02 580.02 0 0 1-21.5-40.84 519.86 519.86 0 0 1-12.37-27.96 446.58 446.58 0 0 1-14.45-40.77 355.87 355.87 0 0 1-6-22.75 289.5 289.5 0 0 1-4.2-22.14c-3.18-21.35-3.1-40.16.18-54.4 3.04-13.14 8.64-22.15 16.63-26.76 4.31-2.48 9.38-3.74 15.16-3.74 4.93 0 10.38.91 16.32 2.73 13.98 4.26 30.3 13.61 47.2 27.03a285.7 285.7 0 0 1 17.08 14.72A349.64 349.64 0 0 1 256 152.51a445.66 445.66 0 0 1 28.1 32.9 529.69 529.69 0 0 1 18.04 24.69 587.94 587.94 0 0 1 24.6 39.04 580.02 580.02 0 0 1 21.51 40.84c4.47 9.39 8.6 18.73 12.36 27.97a446.5 446.5 0 0 1 14.45 40.77c2.3 7.73 4.32 15.31 6.01 22.74a294.79 294.79 0 0 1 4.2 22.14c3.18 21.35 3.1 40.16-.18 54.4z" fill="#fff"/><path d="M427.68 212.96a321.4 321.4 0 0 0-23.9-8.3 386.87 386.87 0 0 0-22.73-6.16 494.6 494.6 0 0 0-65.96-10.87 608.89 608.89 0 0 0-118.2 0 494.44 494.44 0 0 0-65.95 10.87 388.08 388.08 0 0 0-22.73 6.15 316.45 316.45 0 0 0-23.9 8.31c-49.5 19.54-76.77 46.9-76.77 77.02 0 30.12 27.28 57.48 76.77 77.03a321.09 321.09 0 0 0 23.89 8.3c7.31 2.23 14.9 4.3 22.73 6.15a494.44 494.44 0 0 0 65.97 10.88 608.98 608.98 0 0 0 87.19 2.23c10.5-.49 20.84-1.23 31-2.23a493.12 493.12 0 0 0 65.97-10.88 379.62 379.62 0 0 0 22.73-6.15c8.33-2.54 16.31-5.31 23.89-8.3 49.5-19.55 76.77-46.9 76.77-77.03 0-30.12-27.27-57.48-76.77-77.02zm38.37 104.8c-10.68 9.97-26.94 19.43-47.01 27.36a291.32 291.32 0 0 1-21.29 7.43 355.45 355.45 0 0 1-22.7 6.16 446.42 446.42 0 0 1-42.53 7.88 509.56 509.56 0 0 1-30.39 3.27c-15.01 1.2-30.45 1.81-46.13 1.81s-31.12-.6-46.13-1.8a518.26 518.26 0 0 1-30.4-3.28 446.42 446.42 0 0 1-42.54-7.88 355.45 355.45 0 0 1-22.7-6.16 291.48 291.48 0 0 1-21.28-7.43c-20.07-7.93-36.33-17.39-47-27.37-9.87-9.2-14.88-18.54-14.88-27.77s5-18.57 14.87-27.77c10.68-9.98 26.94-19.44 47.01-27.37a291.32 291.32 0 0 1 21.29-7.43c7.28-2.24 14.86-4.3 22.7-6.16a446.42 446.42 0 0 1 42.53-7.88 518.26 518.26 0 0 1 30.4-3.28c15.01-1.2 30.44-1.8 46.13-1.8s31.12.6 46.13 1.8c10.36.81 20.5 1.91 30.39 3.28a446.42 446.42 0 0 1 42.54 7.88 355.45 355.45 0 0 1 22.69 6.16 291.48 291.48 0 0 1 21.29 7.43c20.07 7.93 36.33 17.39 47 27.37 9.87 9.2 14.87 18.55 14.87 27.77 0 9.23-5 18.57-14.87 27.77z" fill="#f2f2f2"/><path d="M380.22 74.81c-26.1-15.05-63.4-5.12-105.09 27.98A314.32 314.32 0 0 0 256 119.34a377.96 377.96 0 0 0-16.7 16.6 495.15 495.15 0 0 0-42.4 51.7 582.02 582.02 0 0 0-17.43 25.73 622.53 622.53 0 0 0-28.09 48.65 579.64 579.64 0 0 0-13.57 27.96 494.91 494.91 0 0 0-23.57 62.57 381.32 381.32 0 0 0-6.04 22.77 313.95 313.95 0 0 0-4.75 24.82c-3.56 23.94-3.42 44.7.26 61.65a254.77 254.77 0 0 0 89.28 42.4c13.8-5.8 28.54-14.84 43.87-27.02A314.99 314.99 0 0 0 256 460.63a377.5 377.5 0 0 0 16.69-16.6 495.4 495.4 0 0 0 42.4-51.7 586.83 586.83 0 0 0 17.43-25.74c5-7.8 9.87-15.8 14.6-24a602.84 602.84 0 0 0 27.07-52.61 495.76 495.76 0 0 0 23.56-62.57c2.3-7.71 4.3-15.3 6.03-22.76a314.33 314.33 0 0 0 4.77-24.83c7.81-52.66-2.24-89.94-28.33-105zm-5.16 146.44A446.4 446.4 0 0 1 360.6 262a524.48 524.48 0 0 1-12.36 27.97 580.02 580.02 0 0 1-21.5 40.84 588.35 588.35 0 0 1-24.6 39.04 532.1 532.1 0 0 1-18.05 24.7 444.76 444.76 0 0 1-28.1 32.9 355.69 355.69 0 0 1-16.69 16.57 288.85 288.85 0 0 1-17.07 14.71c-16.9 13.43-33.23 22.77-47.2 27.04-12.91 3.93-23.5 3.6-31.5-1.02-7.97-4.61-13.58-13.62-16.62-26.76-3.29-14.24-3.36-33.05-.18-54.4a294.77 294.77 0 0 1 4.2-22.14c1.69-7.43 3.7-15.01 6-22.75a446.58 446.58 0 0 1 14.46-40.77 520.3 520.3 0 0 1 12.36-27.96 580.02 580.02 0 0 1 21.5-40.84 581.4 581.4 0 0 1 24.62-39.05c5.88-8.56 11.9-16.8 18.02-24.68a448.46 448.46 0 0 1 28.1-32.9 355.73 355.73 0 0 1 16.7-16.58c5.7-5.29 11.39-10.2 17.07-14.71 16.9-13.42 33.23-22.77 47.2-27.03 5.94-1.82 11.4-2.73 16.33-2.73 5.78 0 10.86 1.25 15.16 3.74 8 4.6 13.58 13.62 16.62 26.76 3.3 14.24 3.37 33.05.2 54.4a289.5 289.5 0 0 1-4.22 22.14 355.37 355.37 0 0 1-6 22.75z" fill="#f2f2f2"/><circle cx="256" cy="289.98" r="46.7" fill="#f2f2f2"/><path stroke="#000" d="M173.25 417.35h337.9v94.01h-337.9z"/><text style="white-space:pre" x="182.79" y="497.67" fill="#fff" font-family="Arial,sans-serif" font-size="90.3" font-weight="700">NATIVE</text></svg>